<svg width="340" height="105" viewBox="0 0 340 105" fill="none" xmlns="http://www.w3.org/2000/svg">
<path fill-rule="evenodd" clip-rule="evenodd" d="M15.38 81.6C18.18 82.16 21.58 82.44 25.58 82.44C32.38 82.44 37.7 81.32 41.54 79.08C45.38 76.76 48.1 73.88 49.7 70.44C51.3 66.92 52.1 63.36 52.1 59.76C52.1 55.92 51.38 52.72 49.94 50.16C48.58 47.52 46.74 45.36 44.42 43.68C42.18 41.92 39.66 40.48 36.86 39.36C34.06 38.16 31.26 37.08 28.46 36.12C24.94 34.92 21.82 33.72 19.1 32.52C16.46 31.24 14.38 29.64 12.86 27.72C11.42 25.8 10.7 23.2 10.7 19.92C10.7 17.84 11.22 15.88 12.26 14.04C13.38 12.2 15.1 10.72 17.42 9.60001C19.82 8.48001 22.98 7.92001 26.9 7.92001C30.18 7.92001 32.94 8.24 35.18 8.88C37.5 9.44 39.58 10.24 41.42 11.28C43.34 12.24 45.34 13.32 47.42 14.52V5.64C44.94 4.44 42.7 3.44 40.7 2.64C38.7 1.76 36.58 1.12 34.34 0.720005C32.18 0.240002 29.54 0 26.42 0C21.86 0 17.98 0.640003 14.78 1.92001C11.66 3.2 9.14 4.88 7.22 6.96C5.38 9.04 4.02 11.28 3.14 13.68C2.34 16.08 1.94 18.36 1.94 20.52C1.94 24.44 2.58 27.72 3.86 30.36C5.14 32.92 6.86 35.04 9.02 36.72C11.18 38.32 13.58 39.68 16.22 40.8C18.94 41.84 21.66 42.84 24.38 43.8C27.58 45 30.62 46.28 33.5 47.64C36.38 48.92 38.74 50.6 40.58 52.68C42.42 54.68 43.34 57.36 43.34 60.72C43.34 64.72 41.94 68.04 39.14 70.68C36.42 73.24 32.02 74.52 25.94 74.52C20.18 74.52 15.14 73.68 10.82 72C6.5 70.32 3.06 68.4 0.5 66.24V75.6C3.14 76.96 5.58 78.16 7.82 79.2C10.06 80.24 12.58 81.04 15.38 81.6ZM87.7025 82.2C83.4625 82.2 79.9025 80.9199 77.0225 78.3599C74.1425 75.7199 72.7025 71.8399 72.7025 66.7199V29.2799H62.2625V21.3599H72.7025V4.43994H81.3425V21.3599H96.8225V29.2799H81.3425V63.9599C81.3425 67.3199 81.8624 69.8399 82.9025 71.5199C83.9425 73.1999 86.0625 74.0399 89.2625 74.0399C90.7025 74.0399 92.1025 73.9199 93.4625 73.6799C94.8225 73.3599 95.9425 72.9999 96.8225 72.5999V80.7599C95.7025 81.16 94.2625 81.4799 92.5024 81.7199C90.8224 82.0399 89.2225 82.2 87.7025 82.2ZM112.456 26.16V81.24H121.096V30.36L126.616 29.4C128.456 29.08 130.296 28.84 132.136 28.68C133.976 28.44 135.856 28.32 137.776 28.32C139.776 28.32 141.816 28.44 143.896 28.68V21L141.976 20.52C141.336 20.36 140.696 20.28 140.056 20.28C135.896 20.28 131.856 20.68 127.936 21.48C124.096 22.28 120.776 23.16 117.976 24.12C115.256 25.08 113.416 25.76 112.456 26.16ZM178.072 83.04C168.712 83.04 161.752 80.28 157.192 74.76C152.712 69.16 150.472 61.4 150.472 51.48C150.472 41.08 152.832 33.28 157.552 28.08C162.352 22.88 169.112 20.28 177.832 20.28C184.312 20.28 189.592 21.6 193.672 24.24C197.752 26.8 200.752 30.44 202.672 35.16C204.592 39.8 205.552 45.24 205.552 51.48C205.552 61.32 203.152 69.04 198.352 74.64C193.632 80.24 186.872 83.04 178.072 83.04ZM177.952 75.12C182.832 75.12 186.632 74.08 189.352 72C192.072 69.84 193.992 67 195.112 63.48C196.312 59.88 196.912 55.88 196.912 51.48C196.912 46.76 196.312 42.68 195.112 39.24C193.912 35.72 191.912 33 189.112 31.08C186.392 29.16 182.672 28.2 177.952 28.2C173.152 28.2 169.392 29.24 166.672 31.32C163.952 33.4 161.992 36.2 160.792 39.72C159.672 43.16 159.112 47.08 159.112 51.48C159.112 58.52 160.512 64.24 163.312 68.64C166.112 72.96 170.992 75.12 177.952 75.12ZM227.672 23.64C225.672 24.36 223.712 25.2 221.792 26.16V81.24H230.432V30.48C233.152 29.68 235.832 29.08 238.472 28.68C241.112 28.28 243.672 28.08 246.152 28.08C249.752 28.08 252.632 28.56 254.792 29.52C256.952 30.4 258.552 31.6 259.592 33.12C260.632 34.56 261.312 36.08 261.632 37.68C262.032 39.28 262.232 40.8 262.232 42.24V81.24H270.872V42.24C270.872 37.6 270.072 33.64 268.472 30.36C266.952 27.08 264.472 24.6 261.032 22.92C257.592 21.16 252.952 20.28 247.112 20.28C244.872 20.28 242.632 20.4 240.392 20.64C238.232 20.88 236.072 21.24 233.912 21.72C231.832 22.2 229.752 22.84 227.672 23.64ZM299.112 79.4399C303.192 81.8399 308.312 83.0399 314.472 83.0399C316.232 83.0399 318.312 82.7999 320.712 82.3199C323.112 81.8399 325.472 81.2399 327.792 80.5199C328.786 80.2116 329.706 79.896 330.552 79.5731V83.9999C330.552 85.9999 330.152 87.9599 329.352 89.8799C328.552 91.8799 326.832 93.5199 324.192 94.7999C321.632 96.1599 317.632 96.8399 312.192 96.8399C309.952 96.8399 307.832 96.6799 305.832 96.3599C303.912 96.0399 302.112 95.6399 300.432 95.1599L296.112 94.0799V102.24C298.272 102.8 300.792 103.4 303.672 104.04C306.552 104.68 309.712 105 313.152 105C318.512 105 322.872 104.36 326.232 103.08C329.672 101.8 332.312 100.08 334.152 97.9199C336.072 95.8399 337.392 93.5599 338.112 91.0799C338.832 88.5999 339.192 86.1599 339.192 83.7599V35.2799C339.192 31.6799 338.072 28.7999 335.832 26.6399C333.672 24.4799 330.872 22.9199 327.432 21.9599C324.072 20.9199 320.512 20.3999 316.752 20.3999C313.472 20.3999 310.072 20.8399 306.552 21.7199C303.112 22.5199 299.912 24.0799 296.952 26.3999C294.072 28.6399 291.712 31.9199 289.872 36.2399C288.032 40.4799 287.112 46.0399 287.112 52.9199C287.112 59.0799 288.112 64.4399 290.112 68.9999C292.112 73.4799 295.112 76.9599 299.112 79.4399ZM322.512 74.1599C319.712 74.7999 317.032 75.1199 314.472 75.1199C307.912 75.1199 303.232 73.0799 300.432 68.9999C297.632 64.8399 296.232 59.4799 296.232 52.9199C296.232 48.5999 296.752 44.5599 297.792 40.7999C298.832 37.0399 300.832 34.0399 303.792 31.7999C306.752 29.4799 311.152 28.3199 316.992 28.3199C319.392 28.3199 321.632 28.5599 323.712 29.0399C325.792 29.4399 327.432 30.2399 328.632 31.4399C329.912 32.5599 330.552 34.2399 330.552 36.4799V70.9199C328.072 72.3599 325.392 73.4399 322.512 74.1599Z" fill="url(#paint0_linear_143_430)"/>
<defs>
<linearGradient id="paint0_linear_143_430" x1="26.3" y1="0" x2="26.3" y2="82.44" gradientUnits="userSpaceOnUse">
<stop stop-color="white"/>
<stop offset="1" stop-color="white" stop-opacity="0"/>
</linearGradient>
</defs>
</svg>
