<svg width="286" height="85" viewBox="0 0 286 85" fill="none" xmlns="http://www.w3.org/2000/svg">
<path d="M259.564 56.5201L239.884 82.6801H230.164L254.404 50.0401L259.564 56.5201ZM285.604 82.6801H274.564L230.764 22.8L241.684 22.8L285.604 82.6801ZM255.604 49.2001L275.404 22.8H285.364L260.404 56.5201L255.604 49.2001Z" fill="url(#paint0_linear_143_438)"/>
<path d="M189.759 84.48C187.119 84.48 184.439 84.2 181.719 83.64C179.079 83.08 176.599 82.12 174.279 80.76C172.039 79.4 170.199 77.56 168.759 75.24C167.399 72.84 166.719 69.84 166.719 66.24C166.719 61.28 167.639 57.32 169.479 54.36C171.399 51.32 173.999 49.16 177.279 47.88C180.639 46.52 184.479 45.84 188.799 45.84C192.079 45.84 194.919 46.04 197.319 46.44C199.719 46.84 201.839 47.44 203.679 48.24C205.599 48.96 207.319 49.8 208.839 50.76L210.519 58.68C208.679 57.32 205.999 56.16 202.479 55.2C199.039 54.16 195.239 53.64 191.079 53.64C186.039 53.64 182.159 54.6 179.439 56.52C176.719 58.44 175.359 61.24 175.359 64.92C175.359 67.88 176.159 70.24 177.759 72C179.439 73.76 181.519 75 183.999 75.72C186.559 76.44 189.159 76.8 191.799 76.8C196.999 76.8 200.919 76.44 203.559 75.72C206.279 74.92 207.639 73.16 207.639 70.44V42.96C207.639 38.32 206.279 34.92 203.559 32.76C200.839 30.6 196.959 29.52 191.919 29.52C188.719 29.52 185.319 30 181.719 30.96C178.199 31.84 175.159 33.28 172.599 35.28V26.64C175.079 25.04 178.399 23.84 182.559 23.04C186.719 22.16 190.759 21.72 194.679 21.72C197.319 21.72 199.759 22 201.999 22.56C204.239 23.04 206.239 23.8 207.999 24.84C209.759 25.8 211.239 27.08 212.439 28.68C213.719 30.2 214.679 32 215.319 34.08C216.039 36.08 216.399 38.36 216.399 40.92V69.96C216.399 74.2 215.119 77.36 212.559 79.44C210.079 81.52 206.799 82.88 202.719 83.52C198.719 84.16 194.399 84.48 189.759 84.48Z" fill="url(#paint1_linear_143_438)"/>
<path d="M149.868 82.68H141.228V0L149.868 0V82.68Z" fill="url(#paint2_linear_143_438)"/>
<path d="M100.323 84.48C94.6432 84.48 89.7231 83.32 85.5631 81C81.4031 78.6 78.2032 75.04 75.9632 70.32C73.7232 65.6 72.6031 59.72 72.6031 52.68C72.6031 42.36 74.9231 34.64 79.5631 29.52C84.2831 24.32 90.7232 21.72 98.8832 21.72C105.283 21.72 110.403 23.16 114.243 26.04C118.163 28.92 120.963 32.8 122.643 37.68C124.323 42.56 125.123 48.08 125.043 54.24L76.9231 54.24L77.5231 46.32L119.403 46.32L116.043 47.52C115.803 41.52 114.283 37.04 111.483 34.08C108.763 31.12 104.563 29.64 98.8832 29.64C94.9632 29.64 91.6832 30.36 89.0432 31.8C86.4832 33.24 84.5632 35.76 83.2831 39.36C82.0031 42.88 81.3632 47.84 81.3632 54.24C81.3632 61.52 83.0432 67.08 86.4032 70.92C89.8432 74.68 94.6432 76.56 100.803 76.56C103.763 76.56 106.483 76.36 108.963 75.96C111.443 75.48 113.723 74.84 115.803 74.04C117.883 73.24 119.723 72.36 121.323 71.4V80.28C118.443 81.64 115.243 82.68 111.723 83.4C108.283 84.12 104.483 84.48 100.323 84.48Z" fill="url(#paint3_linear_143_438)"/>
<path d="M0.5 82.6799L0.5 2.63989L33.38 2.63989C41.22 2.63989 47.1 4.5999 51.02 8.5199C55.02 12.4399 57.02 18.2399 57.02 25.9199C57.02 30.5599 56.06 34.6799 54.14 38.2799C52.22 41.8799 49.54 44.7199 46.1 46.7999C42.66 48.8799 38.62 49.9199 33.98 49.9199L37.58 47.5199L60.62 82.6799H50.42L26.66 45.9599L30.98 50.3999L9.14 50.3999L9.14 82.6799H0.5ZM9.14 42.2399L29.42 42.2399C36.06 42.2399 40.86 40.9199 43.82 38.2799C46.86 35.5599 48.38 31.6399 48.38 26.5199C48.38 21.7199 47.26 17.9199 45.02 15.1199C42.78 12.2399 38.58 10.7999 32.42 10.7999L9.14 10.7999L9.14 42.2399Z" fill="url(#paint4_linear_143_438)"/>
<defs>
<linearGradient id="paint0_linear_143_438" x1="140.3" y1="-52.3201" x2="140.3" y2="127.68" gradientUnits="userSpaceOnUse">
<stop stop-color="white"/>
<stop offset="1" stop-color="white" stop-opacity="0"/>
</linearGradient>
<linearGradient id="paint1_linear_143_438" x1="140.3" y1="-52.3201" x2="140.3" y2="127.68" gradientUnits="userSpaceOnUse">
<stop stop-color="white"/>
<stop offset="1" stop-color="white" stop-opacity="0"/>
</linearGradient>
<linearGradient id="paint2_linear_143_438" x1="140.3" y1="-52.3201" x2="140.3" y2="127.68" gradientUnits="userSpaceOnUse">
<stop stop-color="white"/>
<stop offset="1" stop-color="white" stop-opacity="0"/>
</linearGradient>
<linearGradient id="paint3_linear_143_438" x1="140.3" y1="-52.3201" x2="140.3" y2="127.68" gradientUnits="userSpaceOnUse">
<stop stop-color="white"/>
<stop offset="1" stop-color="white" stop-opacity="0"/>
</linearGradient>
<linearGradient id="paint4_linear_143_438" x1="140.3" y1="-52.3201" x2="140.3" y2="127.68" gradientUnits="userSpaceOnUse">
<stop stop-color="white"/>
<stop offset="1" stop-color="white" stop-opacity="0"/>
</linearGradient>
</defs>
</svg>
