<svg width="48" height="48" viewBox="0 0 48 48" fill="currentColor" xmlns="http://www.w3.org/2000/svg">
<g clip-path="url(#clip0_125_135)">
<path fill-rule="evenodd" clip-rule="evenodd" d="M24.0093 0.75C23.5577 0.75 23.2061 1.10165 23.2061 1.55321V5.70227C23.2061 6.14621 23.5872 6.48703 24.0093 6.48703C24.4369 6.48703 24.8125 6.14077 24.8125 5.68383V1.55321C24.8125 1.12554 24.4662 0.75 24.0093 0.75ZM13.9182 3.58666C13.7104 3.22305 13.2315 3.04836 12.8395 3.27235C12.4768 3.47962 12.302 3.95671 12.5235 4.34815L14.9178 8.78672C15.0607 9.06885 15.3415 9.19773 15.6189 9.19773C15.7364 9.19773 15.8836 9.17554 16.0139 9.08359C16.3679 8.87251 16.536 8.40195 16.317 8.0151L13.921 3.5916L13.9182 3.58666ZM35.5131 4.38555C35.729 4.00467 35.5901 3.52083 35.1943 3.3075C34.8129 3.09181 34.3285 3.23161 34.1159 3.62871L34.1152 3.62997L31.7007 8.0535L31.7 8.05475C31.5042 8.41837 31.6457 8.89759 32.0172 9.10985L32.0296 9.11606C32.1118 9.15718 32.2472 9.21621 32.3996 9.21621C32.6686 9.21621 32.9584 9.06156 33.0975 8.81102L33.0984 8.80938L35.5117 4.38798L35.5131 4.38555ZM24.2305 8.19989C21.3079 8.19989 18.9278 10.58 18.9278 13.5025C18.9278 15.4464 19.9707 17.1404 21.5244 18.0692C20.7691 18.3301 20.0517 18.7049 19.3881 19.1764C18.6039 18.7093 17.688 18.4527 16.7068 18.4527C13.7843 18.4527 11.4042 20.8328 11.4042 23.7553C11.4042 25.6826 12.4324 27.376 13.9849 28.3048C13.181 28.5849 12.4269 28.991 11.739 29.4967C10.915 28.9589 9.92599 28.6501 8.86972 28.6501C5.94717 28.6501 3.56709 31.0302 3.56709 33.9528C3.56709 35.8957 4.60891 37.5889 6.16135 38.5181C2.80911 39.6548 0.450684 42.7925 0.450684 46.4737C0.450684 46.9014 0.796952 47.2769 1.25389 47.2769C1.70544 47.2769 2.0571 46.9253 2.0571 46.4737C2.0571 42.6836 5.13576 39.6058 8.9066 39.6058C12.6963 39.6058 15.7745 42.684 15.7745 46.4737C15.7745 46.9014 16.1208 47.2769 16.5777 47.2769C17.0054 47.2769 17.381 46.9307 17.381 46.4737C17.381 42.684 20.4592 39.6058 24.2489 39.6058C27.8539 39.6058 30.8375 42.4065 31.0791 45.9524C31.0615 46.1245 31.0615 46.294 31.0615 46.4494V46.4553C31.0615 46.8829 31.4078 47.2585 31.8647 47.2585H31.9016C32.3293 47.2585 32.7048 46.9121 32.7048 46.4552V46.4492V46.4491C32.7048 46.2941 32.7048 46.1248 32.6873 45.9531C32.947 42.4053 35.9137 39.6058 39.5174 39.6058C43.3071 39.6058 46.3854 42.684 46.3854 46.4737C46.3854 46.9014 46.7316 47.2769 47.1886 47.2769C47.6162 47.2769 47.9918 46.9307 47.9918 46.4737L47.9917 46.4688C47.92 42.7919 45.5608 39.6732 42.2886 38.5065C43.8494 37.5794 44.9123 35.8833 44.9123 33.9343C44.9123 31.0118 42.5322 28.6317 39.6096 28.6317C38.6063 28.6317 37.6562 28.9235 36.8552 29.409C36.2083 28.9399 35.508 28.5666 34.77 28.306C36.328 27.3783 37.3886 25.6837 37.3886 23.7369C37.3886 20.8143 35.0086 18.4342 32.086 18.4342C31.0486 18.4342 30.0779 18.7258 29.2562 19.2453C28.5488 18.7236 27.7758 18.3244 26.9548 18.0478C28.4921 17.1187 29.5331 15.4282 29.5331 13.5025C29.5331 10.58 27.153 8.19989 24.2305 8.19989ZM6.29099 9.27979C5.97413 8.98934 5.4955 8.98934 5.17864 9.27979L5.17062 9.28714L5.16328 9.29515C4.87282 9.61201 4.87258 10.0909 5.16303 10.4077L8.67444 13.8637L8.67518 13.8644C8.82942 14.0183 9.02065 14.1029 9.23846 14.1029C9.45662 14.1029 9.64828 14.0182 9.80265 13.8638L9.81 13.8558C10.1005 13.539 10.1007 13.0601 9.81024 12.7433L6.29753 9.28579L6.29099 9.27979ZM42.8734 9.47958C42.5688 9.14724 42.0593 9.15837 41.7457 9.44578L41.7438 9.44759L38.2605 12.7097L38.2595 12.7107C37.9282 13.0154 37.9394 13.5244 38.2265 13.8376L38.2342 13.8453C38.3948 14.0058 38.6073 14.0844 38.8167 14.0844C39.0175 14.0844 39.2013 13.9992 39.3455 13.879L39.3511 13.8743L42.8396 10.6073L42.8407 10.6063C43.172 10.3016 43.1605 9.79278 42.8734 9.47958ZM20.442 13.4841C20.442 11.4285 22.1181 9.76943 24.1567 9.76943C26.2123 9.76943 27.8714 11.4454 27.8714 13.4841C27.8714 15.522 26.1946 17.1987 24.1567 17.1987C22.1188 17.1987 20.442 15.522 20.442 13.4841ZM1.82076 16.6321C1.43054 16.45 0.970373 16.5803 0.756836 16.9807L0.753818 16.9866C0.563149 17.3679 0.723417 17.8495 1.10438 18.0407L1.10534 18.0411L4.90231 19.9765L4.90404 19.9774C5.01643 20.0336 5.14762 20.0591 5.25557 20.0591C5.55113 20.0591 5.82327 19.8967 5.9587 19.6259L5.96156 19.6198C6.14366 19.2295 6.01334 18.7693 5.61296 18.5558L1.8282 16.6356L1.82076 16.6321ZM47.4705 17.177C47.2737 16.7554 46.7814 16.6388 46.4006 16.8165L42.595 18.756C42.2093 18.9495 42.0547 19.435 42.2643 19.8317C42.4024 20.1048 42.6945 20.2619 42.9658 20.2619C43.0966 20.2619 43.2086 20.2345 43.3173 20.1802L43.3191 20.1793L47.1142 18.2449C47.5324 18.0468 47.6476 17.5565 47.4705 17.177ZM21.9541 23.7369C21.9541 22.375 21.4397 21.1467 20.6131 20.206C21.694 19.5275 22.9227 19.174 24.2305 19.174C25.5775 19.174 26.8942 19.5784 28.0051 20.3148C27.2282 21.2359 26.7465 22.4278 26.7465 23.7369C26.7465 25.6418 27.7535 27.3131 29.2666 28.2534C28.4343 28.5203 27.6618 28.917 26.9665 29.4263C26.1491 28.9241 25.1967 28.6317 24.1751 28.6317C23.2106 28.6317 22.2955 28.8887 21.5116 29.3559C20.8597 28.8981 20.1454 28.5378 19.3929 28.2826C20.9287 27.353 21.9541 25.6616 21.9541 23.7369ZM12.9 23.7184C12.9 21.6629 14.576 20.0038 16.6146 20.0038C18.6525 20.0038 20.3293 21.6805 20.3293 23.7184C20.3293 25.774 18.6533 27.4331 16.6146 27.4331C14.576 27.4331 12.9 25.774 12.9 23.7184ZM28.3345 23.7184C28.3345 21.6629 30.0105 20.0038 32.0491 20.0038C34.087 20.0038 35.7638 21.6805 35.7638 23.7184C35.7638 25.774 34.0878 27.4331 32.0491 27.4331C29.9936 27.4331 28.3345 25.7571 28.3345 23.7184ZM0.553208 25.1649C0.125542 25.1649 -0.25 25.5112 -0.25 25.9681C-0.25 26.3958 0.0962644 26.7713 0.553208 26.7713H3.52209C3.97365 26.7713 4.3253 26.4197 4.3253 25.9681C4.3253 25.5405 3.97903 25.1649 3.52209 25.1649H0.553208ZM44.478 25.1833C44.0503 25.1833 43.6748 25.5296 43.6748 25.9866C43.6748 26.4142 44.0211 26.7898 44.478 26.7898H47.4469C47.8746 26.7898 48.2501 26.4435 48.2501 25.9866V25.9792L48.2497 25.9719C48.2243 25.5399 47.8876 25.1833 47.4469 25.1833H44.478ZM14.0986 33.9343C14.0986 32.6424 13.6327 31.4674 12.8726 30.5487C13.9839 29.7957 15.3021 29.3899 16.6515 29.3899C17.9042 29.3899 19.1577 29.7414 20.2264 30.3871C19.3859 31.3279 18.8725 32.5555 18.8725 33.9159C18.8725 35.8447 19.9024 37.5393 21.4437 38.4676C19.2793 39.234 17.5088 40.8453 16.5415 42.9045C15.5694 40.8263 13.7667 39.1996 11.5667 38.4582C13.0864 37.5192 14.0986 35.8442 14.0986 33.9343ZM29.4962 33.9159C29.4962 32.6079 29.0152 31.3995 28.2222 30.4749C29.3121 29.7622 30.6083 29.3899 31.9385 29.3899C33.2469 29.3899 34.4937 29.7598 35.5942 30.4583C34.7863 31.3866 34.307 32.6119 34.307 33.9343C34.307 35.8411 35.3159 37.5138 36.8183 38.4536C34.6042 39.1798 32.8119 40.793 31.8289 42.857C30.8626 40.8128 29.0929 39.2167 26.9294 38.465C28.4683 37.5361 29.4962 35.8429 29.4962 33.9159ZM5.04442 33.9343C5.04442 31.8788 6.72044 30.2197 8.75908 30.2197C10.797 30.2197 12.4737 31.8965 12.4737 33.9343C12.4737 35.9899 10.7977 37.649 8.75908 37.649C6.72044 37.649 5.04442 35.9899 5.04442 33.9343ZM20.4605 33.9343C20.4605 31.8788 22.1365 30.2197 24.1751 30.2197C26.2307 30.2197 27.8898 31.8957 27.8898 33.9343C27.8898 35.9907 26.2315 37.649 24.1751 37.649C22.1196 37.649 20.4605 35.973 20.4605 33.9343ZM35.8765 33.9343C35.8765 31.8788 37.5526 30.2197 39.5912 30.2197C41.6475 30.2197 43.3059 31.878 43.3059 33.9343C43.3059 35.9899 41.6298 37.649 39.5912 37.649C37.5356 37.649 35.8765 35.973 35.8765 33.9343Z" fill="#fff"/>
</g>
<defs>
<linearGradient id="paint0_linear_125_135" x1="-0.25" y1="-10.1063" x2="65.8196" y2="16.0075" gradientUnits="userSpaceOnUse">
<stop stop-color="#655AEA"/>
<stop offset="1" stop-color="#95E2FF"/>
</linearGradient>
<clipPath id="clip0_125_135">
<rect width="48" height="48" fill="white"/>
</clipPath>
</defs>
</svg>
