<svg width="48" height="48" viewBox="0 0 48 48" fill="none" xmlns="http://www.w3.org/2000/svg">
<g clip-path="url(#clip0_125_139)">
<path d="M11.6828 11.5665C11.6828 12.8433 10.9902 13.8697 10.1474 13.8697C9.30454 13.8697 8.61192 12.8433 8.61192 11.5665C8.61192 10.2898 9.29619 9.27168 10.1474 9.27168C10.9985 9.27168 11.6828 10.2981 11.6828 11.5665ZM19.1932 9.27168C18.3587 9.27168 17.666 10.2981 17.666 11.5665C17.666 12.8349 18.3587 13.8697 19.1932 13.8697C20.0276 13.8697 20.7286 12.8433 20.7286 11.5665C20.7286 10.2898 20.0276 9.27168 19.1932 9.27168ZM42.2249 47.783C42.6507 47.596 43.0126 47.2887 43.2661 46.8988C43.5196 46.5089 43.6537 46.0534 43.6518 45.5883V42.8179C44.7489 42.622 45.742 42.0466 46.4575 41.1922C47.173 40.3379 47.5653 39.2591 47.5655 38.1448V25.6275C47.5677 25.0026 47.4465 24.3834 47.2089 23.8053C46.9713 23.2273 46.6219 22.7019 46.1807 22.2593C45.7396 21.8166 45.2154 21.4653 44.6383 21.2257C44.0611 20.986 43.4423 20.8626 42.8173 20.8626H32.5449C32.3235 20.8626 32.1113 20.9506 31.9548 21.1071C31.7983 21.2635 31.7104 21.4758 31.7104 21.6971C31.7104 21.9184 31.7983 22.1307 31.9548 22.2872C32.1113 22.4437 32.3235 22.5316 32.5449 22.5316H42.8173C43.6333 22.5338 44.4153 22.8589 44.9923 23.4359C45.5693 24.0129 45.8944 24.7949 45.8966 25.6108V38.1281C45.8944 38.9441 45.5693 39.726 44.9923 40.303C44.4153 40.88 43.6333 41.2051 42.8173 41.2073C42.596 41.2073 42.3838 41.2952 42.2273 41.4517C42.0708 41.6082 41.9829 41.8205 41.9829 42.0418V45.5717C41.9824 45.7135 41.9408 45.8522 41.8632 45.971C41.7856 46.0897 41.6752 46.1835 41.5455 46.2408C41.4157 46.2982 41.2721 46.3168 41.1321 46.2943C40.992 46.2718 40.8614 46.2092 40.7562 46.1141L35.5407 41.4243C35.3876 41.2852 35.1884 41.2079 34.9816 41.2073H19.3183C18.5023 41.2051 17.7204 40.88 17.1434 40.303C16.5664 39.726 16.2413 38.9441 16.2391 38.1281V29.9919C19.1484 29.7551 21.9257 28.6758 24.2314 26.886C26.5371 25.0961 28.2714 22.6732 29.2222 19.9135C30.173 17.1537 30.2991 14.1768 29.5851 11.3465C28.8711 8.51628 27.348 5.95538 25.2019 3.97692C23.0558 1.99845 20.3797 0.688138 17.5009 0.206179C14.622 -0.27578 11.6651 0.0914953 8.99167 1.2631C6.31821 2.43471 4.04403 4.35988 2.44717 6.80326C0.850305 9.24664 -5.10366e-05 12.1023 6.10462e-05 15.0213V29.2075C6.10462e-05 29.4288 0.0879794 29.641 0.244475 29.7975C0.400971 29.954 0.613225 30.0419 0.834543 30.0419C1.05586 30.0419 1.26812 29.954 1.42461 29.7975C1.58111 29.641 1.66903 29.4288 1.66903 29.2075V15.0213C1.66903 12.3805 2.45209 9.79913 3.91919 7.60345C5.3863 5.40777 7.47155 3.69645 9.91126 2.68589C12.351 1.67533 15.0356 1.41092 17.6255 1.9261C20.2155 2.44128 22.5946 3.71291 24.4618 5.58018C26.3291 7.44745 27.6007 9.82649 28.1159 12.4165C28.6311 15.0065 28.3667 17.691 27.3561 20.1307C26.3456 22.5704 24.6342 24.6557 22.4386 26.1228C20.2429 27.5899 17.6615 28.373 15.0207 28.373H5.43254C5.21122 28.373 4.99897 28.4609 4.84247 28.6174C4.68598 28.7739 4.59806 28.9861 4.59806 29.2075C4.59806 29.4288 4.68598 29.641 4.84247 29.7975C4.99897 29.954 5.21122 30.0419 5.43254 30.0419H14.6118V38.1448C14.6118 39.4041 15.1121 40.6118 16.0026 41.5023C16.893 42.3927 18.1007 42.893 19.36 42.893H34.6645L39.6713 47.3741C40.1061 47.7741 40.6745 47.9973 41.2652 48C41.5966 47.9944 41.9233 47.9205 42.2249 47.783ZM28.7563 38.103L30.2584 37.3103C30.3539 37.2612 30.4598 37.2356 30.5671 37.2356C30.6745 37.2356 30.7804 37.2612 30.8759 37.3103L32.378 38.103C32.7634 38.3086 33.1989 38.4016 33.6346 38.3714C34.0704 38.3412 34.4889 38.1891 34.8423 37.9323C35.1956 37.6755 35.4697 37.3245 35.633 36.9194C35.7963 36.5143 35.8424 36.0714 35.766 35.6413L35.4822 33.9724C35.4629 33.8667 35.4703 33.7579 35.5038 33.6558C35.5373 33.5538 35.5959 33.4618 35.6742 33.3882L36.8842 32.2033C37.1981 31.9002 37.4205 31.515 37.526 31.0917C37.6316 30.6683 37.6161 30.2238 37.4812 29.8088C37.3464 29.3939 37.0977 29.0252 36.7634 28.7447C36.4291 28.4643 36.0228 28.2834 35.5907 28.2228L33.9218 27.9724C33.8149 27.9593 33.7131 27.9196 33.6256 27.8569C33.5381 27.7942 33.4678 27.7106 33.4211 27.6136L32.67 26.0865C32.4753 25.7003 32.1771 25.3758 31.8088 25.149C31.4404 24.9223 31.0164 24.8022 30.5838 24.8022C30.1513 24.8022 29.7272 24.9223 29.3589 25.149C28.9906 25.3758 28.6924 25.7003 28.4976 26.0865L27.7466 27.6136C27.6987 27.7097 27.628 27.7926 27.5407 27.8551C27.4535 27.9176 27.3523 27.9579 27.2459 27.9724L25.5769 28.2228C25.1462 28.2828 24.7413 28.4636 24.409 28.7442C24.0767 29.0248 23.8307 29.3937 23.6994 29.8083C23.5638 30.2223 23.5467 30.6659 23.6499 31.0891C23.7531 31.5123 23.9726 31.8982 24.2835 32.2033L25.4601 33.3799C25.5384 33.4534 25.597 33.5454 25.6305 33.6475C25.664 33.7495 25.6714 33.8584 25.652 33.964L25.3683 35.633C25.292 36.0626 25.3385 36.5051 25.5023 36.9095C25.6662 37.314 25.9408 37.664 26.2946 37.9195C26.6528 38.1819 27.078 38.3376 27.521 38.3686C27.964 38.3996 28.4067 38.3047 28.798 38.0947L28.7563 38.103ZM31.1596 26.8208L31.9107 28.3396C32.0781 28.6797 32.3259 28.9737 32.6328 29.1962C32.9396 29.4187 33.2962 29.5629 33.6714 29.6164L35.3404 29.8667C35.4633 29.8843 35.5789 29.9358 35.6742 30.0155C35.7695 30.0952 35.8406 30.1999 35.8796 30.3178C35.9186 30.4358 35.924 30.5622 35.8951 30.683C35.8661 30.8038 35.8041 30.9141 35.7159 31.0016L34.4976 32.1866C34.2257 32.449 34.0227 32.7743 33.9063 33.1337C33.7898 33.4932 33.7636 33.8758 33.83 34.2477L34.1137 35.9167C34.1352 36.0393 34.1215 36.1656 34.0743 36.2807C34.027 36.3959 33.9481 36.4954 33.8467 36.5676C33.7473 36.6431 33.6281 36.6881 33.5036 36.6969C33.3792 36.7058 33.2548 36.6783 33.1457 36.6177L31.6436 35.7832C31.3094 35.6063 30.9369 35.5139 30.5588 35.5139C30.1806 35.5139 29.8082 35.6063 29.474 35.7832L27.9719 36.6177C27.8628 36.6783 27.7385 36.7058 27.614 36.6969C27.4895 36.6881 27.3703 36.6431 27.2709 36.5676C27.1672 36.4976 27.0864 36.3984 27.0389 36.2826C26.9914 36.1667 26.9792 36.0394 27.0039 35.9167L27.2876 34.2477C27.354 33.8758 27.3278 33.4932 27.2113 33.1337C27.0949 32.7743 26.8918 32.449 26.62 32.1866L25.4017 31.0016C25.3103 30.9162 25.2458 30.8059 25.2161 30.6844C25.1865 30.5628 25.193 30.4352 25.2348 30.3173C25.2699 30.1982 25.3392 30.0919 25.4342 30.0118C25.5291 29.9317 25.6455 29.8813 25.7689 29.8667L27.4378 29.6164C27.812 29.5697 28.1689 29.432 28.4774 29.2152C28.7858 28.9984 29.0363 28.7092 29.2069 28.373L29.958 26.8542C30.012 26.7409 30.0972 26.6454 30.2036 26.5789C30.3101 26.5124 30.4333 26.4776 30.5588 26.4787C30.6811 26.4725 30.8027 26.5015 30.9092 26.5621C31.0156 26.6227 31.1025 26.7125 31.1596 26.8208ZM21.054 18.1673C21.1626 17.9836 21.1967 17.7654 21.1494 17.5574C21.1021 17.3494 20.9769 17.1675 20.7996 17.0489C20.6222 16.9303 20.4062 16.8842 20.196 16.9199C19.9857 16.9556 19.797 17.0705 19.6688 17.241C19.1136 18.0706 18.3625 18.7506 17.4819 19.2208C16.6013 19.691 15.6184 19.937 14.6202 19.937C13.6219 19.937 12.6391 19.691 11.7585 19.2208C10.8779 18.7506 10.1268 18.0706 9.57157 17.241C9.44335 17.0705 9.25472 16.9556 9.04443 16.9199C8.83413 16.8842 8.61814 16.9303 8.44082 17.0489C8.2635 17.1675 8.13832 17.3494 8.09099 17.5574C8.04366 17.7654 8.07778 17.9836 8.18633 18.1673C8.89295 19.2258 9.84982 20.0936 10.9721 20.6938C12.0944 21.294 13.3475 21.6081 14.6202 21.6081C15.8929 21.6081 17.146 21.294 18.2683 20.6938C19.3906 20.0936 20.3474 19.2258 21.054 18.1673Z" fill="#fff"/>
</g>
<defs>
<linearGradient id="paint0_linear_125_139" x1="6.10836e-05" y1="-11.2" x2="65.6507" y2="13.4672" gradientUnits="userSpaceOnUse">
<stop stop-color="#655AEA"/>
<stop offset="1" stop-color="#95E2FF"/>
</linearGradient>
<clipPath id="clip0_125_139">
<rect width="48" height="48" fill="white"/>
</clipPath>
</defs>
</svg>
