<svg width="48" height="48" viewBox="0 0 48 48" fill="none" xmlns="http://www.w3.org/2000/svg">
<g clip-path="url(#clip0_125_142)">
<path d="M46.2853 13.9354H31.811C35.5856 13.1253 39.4342 11.6802 40.7925 9.10639C41.5414 7.68723 41.4775 6.06894 40.603 4.29713C39.6769 2.42096 38.392 1.38685 36.7838 1.2232C32.6039 0.795575 27.4658 6.42715 24.663 9.99204C24.4451 9.97076 24.2247 9.95607 23.9998 9.95607C23.7748 9.95607 23.5544 9.97025 23.3365 9.99204C20.5337 6.42766 15.3987 0.796589 11.2162 1.2232C9.60755 1.38685 8.32265 2.42146 7.39648 4.29713C6.52198 6.06945 6.45814 7.68723 7.20699 9.10589C8.56535 11.6802 12.4144 13.1253 16.1891 13.9354H1.71427C1.43054 13.9354 1.20001 14.1659 1.20001 14.4497V21.5024C1.20001 21.7867 1.43054 22.0167 1.71427 22.0167H3.69785V46.2859C3.69785 46.5697 3.92838 46.8002 4.21211 46.8002H43.7874C44.0711 46.8002 44.3017 46.5697 44.3017 46.2859V22.0167H46.2858C46.57 22.0167 46.8 21.7862 46.8 21.5024V14.4497C46.7995 14.1659 46.569 13.9354 46.2853 13.9354ZM36.6795 2.24616C37.9294 2.37333 38.9113 3.19311 39.6804 4.75212C40.4105 6.23209 40.4769 7.49925 39.8821 8.62607C38.7314 10.8088 34.9452 12.4818 29.2082 13.3624C28.8865 11.9006 27.5641 10.7039 25.806 10.2064C27.9112 7.60059 32.9889 1.86717 36.6795 2.24616ZM8.11644 8.62658C7.52213 7.49976 7.5885 6.23259 8.31809 4.75262C9.08771 3.19311 10.0691 2.37384 11.3196 2.24666C15.004 1.87224 20.0868 7.60211 22.192 10.2074C20.4339 10.7044 19.112 11.9012 18.7903 13.3629C13.0539 12.4823 9.26758 10.8093 8.11644 8.62658ZM19.6166 45.7722H4.72637V22.0172H19.6166V45.7722ZM19.6166 20.9887H2.22853V14.9644H19.6161L19.6166 20.9887ZM27.3549 45.7722H20.6447V14.9644H27.3544V45.7722H27.3549ZM19.7463 13.9354C19.8325 12.2984 21.7046 10.9846 23.9998 10.9846C26.2949 10.9846 28.1671 12.2984 28.2532 13.9354H19.7463ZM43.2732 45.7722H28.3829V22.0172H43.2732V45.7722ZM45.771 20.9887H28.3829V14.9644H45.771V20.9887Z" fill="#fff" stroke="#fff" stroke-width="0.5"/>
</g>
<defs>
<linearGradient id="paint0_linear_125_142" x1="1.20001" y1="-9.43981" x2="63.9953" y2="14.3701" gradientUnits="userSpaceOnUse">
<stop stop-color="#655AEA"/>
<stop offset="1" stop-color="#95E2FF"/>
</linearGradient>
<linearGradient id="paint1_linear_125_142" x1="1.20001" y1="-9.43981" x2="63.9953" y2="14.3701" gradientUnits="userSpaceOnUse">
<stop stop-color="#655AEA"/>
<stop offset="1" stop-color="#95E2FF"/>
</linearGradient>
<clipPath id="clip0_125_142">
<rect width="48" height="48" fill="white"/>
</clipPath>
</defs>
</svg>
