<svg width="321" height="88" viewBox="0 0 321 88" fill="none" xmlns="http://www.w3.org/2000/svg">
<path d="M270.572 86.4V0L279.212 0V33.24L278.252 30.96C281.292 29.28 284.492 27.96 287.852 27C291.212 25.96 294.372 25.44 297.332 25.44C302.292 25.44 306.452 26.36 309.812 28.2C313.252 30.04 315.852 32.84 317.612 36.6C319.452 40.28 320.372 45.04 320.372 50.88V86.4L311.732 86.4V50.88C311.732 45.28 310.452 40.96 307.892 37.92C305.332 34.88 301.492 33.36 296.372 33.36C293.572 33.36 290.732 33.76 287.852 34.56C285.052 35.36 282.172 36.56 279.212 38.16V86.4H270.572Z" fill="url(#paint0_linear_143_445)"/>
<path d="M236.589 87.3599C233.389 87.3599 230.109 86.9599 226.749 86.1599C223.469 85.2799 220.429 83.7599 217.629 81.5999C214.909 79.3599 212.709 76.1999 211.029 72.1199C209.349 68.0399 208.509 62.7999 208.509 56.3999C208.509 49.9999 209.349 44.7999 211.029 40.7999C212.709 36.7199 214.909 33.5599 217.629 31.3199C220.429 29.0799 223.469 27.5599 226.749 26.7599C230.109 25.8799 233.389 25.4399 236.589 25.4399C239.629 25.4399 242.629 25.7199 245.589 26.2799C248.629 26.8399 251.549 27.6799 254.349 28.7999V37.0799C251.709 35.9599 248.989 35.1199 246.189 34.5599C243.389 33.9999 240.509 33.7199 237.549 33.7199C230.429 33.7199 225.229 35.5199 221.949 39.1199C218.749 42.7199 217.149 48.4799 217.149 56.3999C217.149 64.3999 218.749 70.1999 221.949 73.7999C225.229 77.3199 230.429 79.0799 237.549 79.0799C240.509 79.0799 243.389 78.7999 246.189 78.2399C248.989 77.6799 251.709 76.8399 254.349 75.7199V84.1199C251.549 85.1599 248.629 85.9599 245.589 86.5199C242.629 87.0799 239.629 87.3599 236.589 87.3599Z" fill="url(#paint1_linear_143_445)"/>
<path d="M183.161 86.3999V26.5199H191.801V86.3999H183.161ZM182.681 15.8399V6.35986L192.281 6.35986V15.8399L182.681 15.8399Z" fill="url(#paint2_linear_143_445)"/>
<path d="M137.447 86.3999V31.3199C138.407 30.9199 140.247 30.2399 142.967 29.2799C145.767 28.3199 149.087 27.4399 152.927 26.6399C156.847 25.8399 160.887 25.4399 165.047 25.4399C165.687 25.4399 166.327 25.5199 166.967 25.6799C167.607 25.8399 168.247 25.9999 168.887 26.1599V33.8399C166.807 33.5999 164.767 33.4799 162.767 33.4799C160.847 33.4799 158.967 33.5999 157.127 33.8399C155.287 33.9999 153.447 34.2399 151.607 34.5599C149.767 34.8799 147.927 35.1999 146.087 35.5199V86.3999H137.447Z" fill="url(#paint3_linear_143_445)"/>
<path d="M69.1266 31.3199C71.0466 30.3599 73.0066 29.5199 75.0066 28.7999C77.0866 27.9999 79.1666 27.3599 81.2466 26.8799C83.4066 26.3999 85.5666 26.0399 87.7266 25.7999C89.9666 25.5599 92.2066 25.4399 94.4466 25.4399C100.287 25.4399 104.927 26.3199 108.367 28.0799C111.807 29.7599 114.287 32.2399 115.807 35.5199C117.407 38.7999 118.207 42.7599 118.207 47.3999V86.3999H109.567V47.3999C109.567 45.9599 109.367 44.4399 108.967 42.8399C108.647 41.2399 107.967 39.7199 106.927 38.2799C105.887 36.7599 104.287 35.5599 102.127 34.6799C99.9666 33.7199 97.0866 33.2399 93.4866 33.2399C91.0066 33.2399 88.4466 33.4399 85.8066 33.8399C83.1666 34.2399 80.4866 34.8399 77.7666 35.6399L77.7666 86.3999H69.1266L69.1266 31.3199Z" fill="url(#paint4_linear_143_445)"/>
<path d="M0 86.3999L0 6.35986L50.52 6.35986V14.5199L8.64 14.5199L8.64 42.1199L45.48 42.1199V50.5199L8.64 50.5199L8.64 78.2399L50.52 78.2399V86.3999L0 86.3999Z" fill="url(#paint5_linear_143_445)"/>
<defs>
<linearGradient id="paint0_linear_143_445" x1="159.495" y1="-48.6001" x2="159.495" y2="131.4" gradientUnits="userSpaceOnUse">
<stop stop-color="white"/>
<stop offset="1" stop-color="white" stop-opacity="0"/>
</linearGradient>
<linearGradient id="paint1_linear_143_445" x1="159.495" y1="-48.6001" x2="159.495" y2="131.4" gradientUnits="userSpaceOnUse">
<stop stop-color="white"/>
<stop offset="1" stop-color="white" stop-opacity="0"/>
</linearGradient>
<linearGradient id="paint2_linear_143_445" x1="159.495" y1="-48.6001" x2="159.495" y2="131.4" gradientUnits="userSpaceOnUse">
<stop stop-color="white"/>
<stop offset="1" stop-color="white" stop-opacity="0"/>
</linearGradient>
<linearGradient id="paint3_linear_143_445" x1="159.495" y1="-48.6001" x2="159.495" y2="131.4" gradientUnits="userSpaceOnUse">
<stop stop-color="white"/>
<stop offset="1" stop-color="white" stop-opacity="0"/>
</linearGradient>
<linearGradient id="paint4_linear_143_445" x1="159.495" y1="-48.6001" x2="159.495" y2="131.4" gradientUnits="userSpaceOnUse">
<stop stop-color="white"/>
<stop offset="1" stop-color="white" stop-opacity="0"/>
</linearGradient>
<linearGradient id="paint5_linear_143_445" x1="159.495" y1="-48.6001" x2="159.495" y2="131.4" gradientUnits="userSpaceOnUse">
<stop stop-color="white"/>
<stop offset="1" stop-color="white" stop-opacity="0"/>
</linearGradient>
</defs>
</svg>
