<svg width="140" height="80" viewBox="0 0 140 80" fill="none" xmlns="http://www.w3.org/2000/svg">
<path d="M121.633 17.2269L123.699 8C128.134 8 131.426 12.1109 130.457 16.4389L130.281 17.2269H131.348C135.812 17.2269 139.148 21.3276 138.24 25.6975H128.444L126.378 35C121.939 35 118.642 30.8904 119.605 26.5578L119.796 25.6975H118.667C114.211 25.6975 110.892 21.5824 111.837 17.2269H121.633Z" fill="#002EBC"/>
<path d="M93.2672 46.5799C93.2672 45.8599 93.3472 44.96 93.5072 43.88C93.7072 42.8 94.0872 41.08 94.6472 38.72C95.2072 36.44 95.5672 34.7999 95.7272 33.7999C95.8872 32.7999 95.9672 31.9599 95.9672 31.2799C95.9672 30.2799 95.7872 29.5199 95.4272 29C95.0672 28.4799 94.5272 28.2199 93.8072 28.2199C92.8472 28.2199 91.9472 28.7199 91.1072 29.7199C90.3072 30.6799 89.6472 32.0199 89.1272 33.7399L85.0472 53H76.4072L80.7872 32.2999C80.8672 32.0599 80.9072 31.8199 80.9072 31.5799C80.9472 31.3399 80.9672 31.0799 80.9672 30.7999C80.9672 29.9999 80.8072 29.3599 80.4872 28.8799C80.1672 28.3999 79.7272 28.1599 79.1672 28.1599C78.1272 28.1599 77.1872 28.6599 76.3472 29.6599C75.5072 30.6199 74.8272 31.9799 74.3072 33.7399L70.2272 53H61.5872L67.9472 23H76.5872L75.9272 26.1199C76.9272 24.9599 78.0272 24.0999 79.2272 23.5399C80.4272 22.98 81.7672 22.7 83.2472 22.7C85.0072 22.7 86.3872 23.1399 87.3872 24.0199C88.4272 24.8599 89.1072 26.1399 89.4272 27.8599C90.5472 26.1399 91.7872 24.8599 93.1472 24.0199C94.5072 23.1799 96.0472 22.76 97.7672 22.76C99.8872 22.76 101.527 23.3399 102.687 24.4999C103.847 25.6599 104.427 27.3399 104.427 29.5399C104.427 30.4599 104.307 31.5599 104.067 32.84C103.867 34.08 103.447 35.9999 102.807 38.5999C102.287 40.6399 101.947 42.0799 101.787 42.9199C101.627 43.7599 101.547 44.46 101.547 45.02C101.547 45.86 101.747 46.4999 102.147 46.9399C102.547 47.3399 103.147 47.54 103.947 47.54C104.947 47.54 105.807 47.2 106.527 46.52C107.247 45.84 108.067 44.4199 108.987 42.2599H111.507C110.227 45.9799 108.667 48.7599 106.827 50.5999C105.027 52.4399 102.867 53.36 100.347 53.36C98.1072 53.36 96.3672 52.76 95.1272 51.56C93.8872 50.32 93.2672 48.6599 93.2672 46.5799Z" fill="#1C1C1C"/>
<path d="M44.7075 47.54C45.7075 47.54 46.6075 47.12 47.4075 46.28C48.2075 45.44 48.8675 44.22 49.3875 42.62L53.5875 23H62.2275L56.2875 50.84C58.2875 50.12 59.8475 49.12 60.9675 47.84C62.1275 46.52 63.0875 44.66 63.8475 42.26H66.3675C65.4475 45.3 64.1275 47.74 62.4075 49.58C60.7275 51.42 58.5075 52.72 55.7475 53.48L54.8475 57.8C54.1275 61.16 52.8675 63.7 51.0675 65.42C49.2675 67.14 46.9275 68 44.0475 68C42.0075 68 40.3675 67.48 39.1275 66.44C37.9275 65.4 37.3275 63.98 37.3275 62.18C37.3275 60.22 38.1275 58.48 39.7275 56.96C41.3675 55.48 43.8275 54.24 47.1075 53.24L47.8275 50C46.8275 51.12 45.7275 51.96 44.5275 52.52C43.3675 53.08 42.0675 53.36 40.6275 53.36C38.6275 53.36 37.0475 52.74 35.8875 51.5C34.7675 50.22 34.2075 48.44 34.2075 46.16C34.2075 45.64 34.2475 45.06 34.3275 44.42C34.4075 43.74 34.5275 43.02 34.6875 42.26L38.7675 23H47.4075L43.0875 43.4C43.0475 43.64 43.0075 43.9 42.9675 44.18C42.9275 44.42 42.9075 44.66 42.9075 44.9C42.9075 45.74 43.0475 46.4 43.3275 46.88C43.6475 47.32 44.1075 47.54 44.7075 47.54ZM46.5075 56.24C44.5075 57 43.0275 57.78 42.0675 58.58C41.1075 59.42 40.6275 60.34 40.6275 61.34C40.6275 61.86 40.8275 62.32 41.2275 62.72C41.6275 63.12 42.1075 63.32 42.6675 63.32C43.3475 63.32 44.0075 62.84 44.6475 61.88C45.2875 60.92 45.7875 59.62 46.1475 57.98L46.5075 56.24Z" fill="#1C1C1C"/>
<path d="M17.34 41.48C18.54 41.48 19.54 41.3 20.34 40.94C21.14 40.58 21.84 40.02 22.44 39.26L25.02 27.86L32.76 27.92L27.84 50.48C26.68 55.92 24.9 59.76 22.5 62C20.1 64.28 16.76 65.42 12.48 65.42C9.96002 65.42 7.94002 64.64 6.42002 63.08C4.90002 61.52 4.14001 59.54 4.14001 57.14C4.14001 54.82 4.82001 52.88 6.18001 51.32C7.54001 49.72 9.30001 48.92 11.46 48.92C13.62 48.92 15.14 49.26 16.02 49.94C16.9 50.58 17.34 51.58 17.34 52.94C17.34 53.26 17.3 53.62 17.22 54.02C17.18 54.46 17.1 54.9 16.98 55.34C16.3 54.78 15.7 54.38 15.18 54.14C14.66 53.9 14.06 53.78 13.38 53.78C12.14 53.78 11.12 54.22 10.32 55.1C9.56001 55.98 9.18001 57.06 9.18001 58.34C9.18001 59.54 9.52001 60.52 10.2 61.28C10.88 62.04 11.8 62.42 12.96 62.42C14.6 62.42 15.86 61.84 16.74 60.68C17.62 59.56 18.36 57.68 18.96 55.04L21.36 44.3C20.12 44.98 18.8 45.52 17.4 45.92C16 46.28 14.88 46.46 14.04 46.46C9.80001 46.46 6.58002 45.16 4.38002 42.56C2.22002 39.92 1.14001 36.1 1.14001 31.1C1.14001 28.14 1.64001 25.26 2.64001 22.46C3.68001 19.62 5.12001 17.14 6.96001 15.02C8.92001 12.74 11.2 11 13.8 9.8C16.44 8.6 19.3 8 22.38 8C25.74 8 28.44 8.72 30.48 10.16C32.52 11.56 33.54 13.52 33.54 16.04C33.54 17.84 33.18 19.22 32.46 20.18C31.74 21.1 30.7 21.56 29.34 21.56C28.5 21.56 27.7 21.42 26.94 21.14C26.22 20.86 25.64 20.48 25.2 20C25.88 19.8 26.48 19.16 27 18.08C27.56 17 27.84 16 27.84 15.08C27.84 13.8 27.48 12.78 26.76 12.02C26.04 11.22 25.02 10.82 23.7 10.82C21.98 10.82 20.24 11.54 18.48 12.98C16.76 14.38 15.22 16.34 13.86 18.86C12.74 20.82 11.88 22.92 11.28 25.16C10.68 27.36 10.38 29.5 10.38 31.58C10.38 34.66 10.98 37.08 12.18 38.84C13.42 40.6 15.14 41.48 17.34 41.48Z" fill="#1C1C1C"/>
</svg>
